<?xml version="1.0" standalone="no"?><!DOCTYPE svg PUBLIC "-//W3C//DTD SVG 1.1//EN" "http://www.w3.org/Graphics/SVG/1.1/DTD/svg11.dtd"><svg t="1673771657233" class="icon" viewBox="0 0 1024 1024" version="1.1" xmlns="http://www.w3.org/2000/svg" p-id="3522" xmlns:xlink="http://www.w3.org/1999/xlink" width="200" height="200"><path d="M588.468659 257.265591H123.316451L371.227243 58.55359a31.947267 31.947267 0 1 0-39.614611-49.837737l-319.472671 255.578137v11.501016a30.669376 30.669376 0 0 0 0 4.472617v3.194727a30.669376 30.669376 0 0 0 0 4.472617v11.501016l319.472671 255.578137a31.947267 31.947267 0 1 0 40.253556-49.837737L123.316451 321.160125h465.152208C792.292223 321.160125 958.418011 464.283881 958.418011 640.632795s-166.125789 319.47267-369.949352 319.472671H95.841801a31.947267 31.947267 0 0 0 0 63.894534h492.626858C830.628943 1024 1022.312545 852.123703 1022.312545 640.632795s-191.683602-383.367205-433.843886-383.367204z" fill="#bfbfbf" p-id="3523"></path></svg>